<svg width="81" height="83" viewBox="0 0 81 83" fill="none" xmlns="http://www.w3.org/2000/svg">
<path fill-rule="evenodd" clip-rule="evenodd" d="M40.3178 80.6357C62.5848 80.6357 80.6357 62.5848 80.6357 40.3178C80.6357 18.0509 62.5848 0 40.3178 0C18.0509 0 0 18.0509 0 40.3178C0 47.1943 1.72153 53.6688 4.75711 59.3336L7.02124 79.8521C7.24375 81.8686 9.25766 83.1756 11.1899 82.5576L25.7178 77.9109C30.245 79.6704 35.1687 80.6357 40.3178 80.6357Z" fill="#0091EA"/>
<path d="M62.137 60.8595C62.137 61.3265 61.9712 61.781 61.6462 62.1163C59.6538 64.1719 56.8688 65.8475 53.2912 67.1431C49.4095 68.5489 45.1545 69.2518 40.5263 69.2518C33.4099 69.2518 27.7242 67.0153 23.4692 62.5424C19.2143 58.0695 16.9375 51.8458 16.6389 43.8713L16.6016 39.0406C16.6016 33.5453 17.5471 28.7529 19.4382 24.6634C21.3293 20.5483 24.0291 17.3918 27.5375 15.1937C31.0709 12.97 35.1517 11.8582 39.7798 11.8582C46.548 11.8582 51.7982 13.4556 55.5306 16.6505C58.8575 19.4568 60.9554 23.4955 61.8242 28.7666C62.0093 29.8898 61.1129 30.8743 59.9745 30.8743H51.1533C50.1954 30.8743 49.3963 30.1667 49.1813 29.2332C48.6587 26.9628 47.7892 25.2862 46.5728 24.2033C45.0799 22.8743 42.9648 22.2097 40.2277 22.2097C36.9432 22.2097 34.4052 23.641 32.6136 26.5037C30.8221 29.3663 29.9138 33.4558 29.889 38.7722V42.146C29.889 47.718 30.8096 51.9097 32.6509 54.7213C34.5171 57.5072 37.4409 58.9002 41.4221 58.9002C44.4183 58.9002 46.7417 58.298 48.3923 57.0936C48.8231 56.7793 49.0362 56.2589 49.0362 55.7257V49.823C49.0362 48.7592 48.1739 47.8969 47.1102 47.8969H41.8552C40.7915 47.8969 39.9291 47.0346 39.9291 45.9708V40.5833C39.9291 39.5195 40.7915 38.6572 41.8552 38.6572H60.2109C61.2747 38.6572 62.137 39.5195 62.137 40.5833V60.8595Z" fill="white"/>
</svg>
