<svg width="162" height="44" viewBox="0 0 162 44" fill="none" xmlns="http://www.w3.org/2000/svg">
<g clip-path="url(#clip0)">
<rect width="162" height="43.4634" fill="white"/>
<path fill-rule="evenodd" clip-rule="evenodd" d="M20.8674 41.7348C32.3921 41.7348 41.7348 32.3921 41.7348 20.8674C41.7348 9.34264 32.3921 0 20.8674 0C9.34264 0 0 9.34264 0 20.8674C0 24.4265 0.891014 27.7774 2.46215 30.7094L3.634 41.3292C3.74916 42.3729 4.7915 43.0494 5.7916 42.7295L13.3108 40.3245C15.6539 41.2352 18.2023 41.7348 20.8674 41.7348Z" fill="#0091EA"/>
<path d="M32.1601 31.4992C32.1601 31.7409 32.0743 31.9761 31.9061 32.1497C30.8749 33.2136 29.4335 34.0808 27.5818 34.7514C25.5727 35.479 23.3705 35.8428 20.9751 35.8428C17.2918 35.8428 14.349 34.6853 12.1468 32.3702C9.94454 30.0552 8.76615 26.834 8.6116 22.7066L8.59229 20.2063C8.59229 17.3621 9.08167 14.8817 10.0604 12.7651C11.0392 10.6353 12.4366 9.00149 14.2524 7.86381C16.0812 6.7129 18.1933 6.13745 20.5887 6.13745C24.0917 6.13745 26.8091 6.96425 28.7409 8.61786C30.4628 10.0703 31.5486 12.1606 31.9982 14.8888C32.0941 15.4701 31.6301 15.9797 31.0409 15.9797H26.4753C25.9795 15.9797 25.5659 15.6134 25.4547 15.1303C25.1841 13.9552 24.7341 13.0874 24.1046 12.527C23.3319 11.8391 22.2372 11.4951 20.8205 11.4951C19.1206 11.4951 17.8069 12.2359 16.8797 13.7176C15.9524 15.1992 15.4823 17.3158 15.4695 20.0674V21.8136C15.4695 24.6975 15.946 26.867 16.899 28.3222C17.8649 29.7641 19.3781 30.4851 21.4387 30.4851C22.9894 30.4851 24.192 30.1734 25.0463 29.55C25.2692 29.3874 25.3796 29.118 25.3796 28.8421V25.787C25.3796 25.2364 24.9332 24.7901 24.3827 24.7901H21.6629C21.1123 24.7901 20.666 24.3438 20.666 23.7932V21.0048C20.666 20.4542 21.1123 20.0079 21.6629 20.0079H31.1633C31.7138 20.0079 32.1601 20.4542 32.1601 21.0048V31.4992Z" fill="white"/>
<path d="M71.7442 11.4134C72.2108 11.4194 72.2407 11.4194 72.3065 11.4194C72.3304 11.4194 72.4022 11.4254 72.4859 11.4314V10.9947C72.2586 11.0246 72.133 11.0306 71.7502 11.0306H69.0945C69.0227 11.0366 69.0227 11.0366 68.9689 11.0366C69.0407 10.9229 69.0885 10.8272 69.2799 10.3846C69.3696 10.1753 69.3696 10.1633 69.4294 10.0557L68.9749 9.9121C68.939 10.1274 68.8612 10.3487 68.6698 10.7495C68.3468 11.4314 67.8922 12.0115 67.3898 12.4003C67.5752 12.496 67.641 12.5499 67.7427 12.6814C68.1375 12.3285 68.4605 11.9338 68.7835 11.4134H70.4343C70.3984 12.0654 70.3027 12.5678 70.1532 12.9028C69.878 13.5786 69.1663 14.1947 68.3169 14.4998C68.4605 14.6134 68.5322 14.7091 68.61 14.8826C70.213 14.117 70.7932 13.2257 70.8769 11.4134H71.7442ZM71.3614 9.85229C71.5349 10.0377 71.822 10.4863 71.9715 10.8033L72.2706 10.6239C72.0911 10.271 71.9236 10.0198 71.6545 9.69677L71.3614 9.85229ZM72.0732 9.58911C72.3065 9.85827 72.5577 10.2411 72.6833 10.5282L72.9883 10.3547C72.785 9.97789 72.6354 9.75658 72.3663 9.42163L72.0732 9.58911ZM74.8703 9.88817C74.8225 10.2291 74.6909 10.7076 74.3978 11.6108C74.1047 12.508 73.8655 13.142 73.4946 13.9794C73.3571 13.9913 73.0281 14.0093 72.9862 14.0093C72.9563 14.0093 72.9563 14.0093 72.8187 14.0033L72.8786 14.4998C72.9922 14.4758 73.1597 14.4519 73.387 14.434C74.8703 14.2964 76.0606 14.1349 77.0655 13.9375C77.203 14.2127 77.2868 14.4041 77.4184 14.745L77.8371 14.5177C77.4243 13.5547 76.8262 12.4721 76.3477 11.8142L75.9769 12.0175C76.27 12.4242 76.581 12.9386 76.898 13.5667C76.1922 13.7042 74.7866 13.8897 73.9911 13.9435C74.3918 13.0284 74.7986 11.8799 75.2352 10.4444C75.295 10.2471 75.3369 10.1274 75.3967 10.0138L74.8703 9.88817ZM83.2142 10.3966C83.1126 10.4385 83.0707 10.4444 82.8314 10.4444H79.8886C79.5597 10.4444 79.44 10.4385 79.2128 10.4026V10.8871C79.4101 10.8571 79.5776 10.8512 79.8827 10.8512H82.9271C82.5862 12.191 82.024 13.0463 81.043 13.6983C80.5825 14.0093 80.2296 14.1708 79.6913 14.3323C79.8468 14.4878 79.8946 14.5536 79.9843 14.751C80.7918 14.4399 81.3062 14.1289 81.8625 13.6265C82.5922 12.9626 83.0468 12.179 83.3638 11.0306C83.4475 10.7256 83.4475 10.7256 83.4894 10.6598L83.2142 10.3966ZM85.6845 10.0497C85.6965 10.1813 85.7025 10.253 85.7025 10.3727V10.594L85.6905 14.0213C85.6905 14.2426 85.6785 14.3084 85.6486 14.41L85.8879 14.7091C85.9716 14.6732 86.0015 14.6672 86.2348 14.6194C87.8318 14.3084 88.7111 13.7521 89.5305 12.5319C89.387 12.4123 89.3511 12.3644 89.2015 12.1551C88.8546 12.7891 88.4539 13.2198 87.8557 13.5906C87.3772 13.8897 86.8329 14.0751 86.1451 14.1887L86.163 10.582C86.163 10.3308 86.175 10.1753 86.1929 10.0497H85.6845Z" fill="#424242"/>
<path fill-rule="evenodd" clip-rule="evenodd" d="M86.8662 19.687H70.2275C69.9125 19.3732 69.478 19.1793 68.9983 19.1793C68.0363 19.1793 67.2565 19.9592 67.2565 20.9212C67.2565 21.3461 67.4086 21.7355 67.6615 22.0379L63.3603 34.8566C63.1527 35.4751 63.4247 36.1528 64.0022 36.4561L67.5507 38.3203C68.2754 38.7009 69.1686 38.3424 69.429 37.5664L70.9003 33.1815C71.082 32.64 71.5893 32.2751 72.1605 32.2751H75.9501C76.5052 32.2751 76.9551 32.7251 76.9551 33.2801C76.9551 33.8352 77.4051 34.2851 77.9601 34.2851H79.1954C79.7505 34.2851 80.2004 33.8352 80.2004 33.2801C80.2004 32.7251 80.6504 32.2751 81.2055 32.2751H84.7011C85.2723 32.2751 85.7796 32.64 85.9612 33.1815L87.4326 37.5664C87.693 38.3424 88.5862 38.7009 89.3108 38.3203L92.8593 36.4561C93.4369 36.1528 93.7089 35.4751 93.5013 34.8566L89.26 22.2164C89.6144 21.8975 89.8372 21.4354 89.8372 20.9212C89.8372 19.9592 89.0573 19.1793 88.0953 19.1793C87.6156 19.1793 87.1812 19.3732 86.8662 19.687ZM74.0875 22.5197V24.8401H76.4078V27.1605H74.0875V29.0168H71.7671V27.1605H69.4466V24.8401H71.7671V22.5197H74.0875ZM86.0956 23.3316C86.0956 24.0044 85.5502 24.5498 84.8774 24.5498C84.2046 24.5498 83.6592 24.0044 83.6592 23.3316C83.6592 22.6588 84.2046 22.1134 84.8774 22.1134C85.5502 22.1134 86.0956 22.6588 86.0956 23.3316ZM82.4409 26.9863C83.1137 26.9863 83.6591 26.4408 83.6591 25.768C83.6591 25.0953 83.1137 24.5498 82.4409 24.5498C81.7681 24.5498 81.2227 25.0953 81.2227 25.768C81.2227 26.4408 81.7681 26.9863 82.4409 26.9863ZM86.0956 28.2045C86.0956 28.8773 85.5502 29.4227 84.8774 29.4227C84.2046 29.4227 83.6592 28.8773 83.6592 28.2045C83.6592 27.5317 84.2046 26.9863 84.8774 26.9863C85.5502 26.9863 86.0956 27.5317 86.0956 28.2045ZM87.3137 26.9863C87.9865 26.9863 88.532 26.4408 88.532 25.768C88.532 25.0953 87.9865 24.5498 87.3137 24.5498C86.6409 24.5498 86.0955 25.0953 86.0955 25.768C86.0955 26.4408 86.6409 26.9863 87.3137 26.9863Z" fill="#424242"/>
<path d="M57.0231 36.8693C56.7361 36.8693 56.5245 36.8406 56.4326 36.5687C56.2285 35.964 55.4161 35.5397 54.8949 35.9079C53.6559 36.7829 52.2537 37.2205 50.6881 37.2205C48.8145 37.2205 47.2746 36.6937 46.0685 35.6401C44.8741 34.5747 44.2769 33.2285 44.2769 31.6012C44.2769 29.6227 45.0263 28.0891 46.5252 27.0004C48.0358 25.9 50.1553 25.3497 52.8838 25.3497H55.0486C55.5992 25.3497 56.0455 24.9034 56.0455 24.3529V23.8571C56.0455 22.7216 55.7059 21.8201 55.0267 21.1528C54.3475 20.4738 53.3463 20.1343 52.0231 20.1343C50.8638 20.1343 49.8918 20.427 49.1073 21.0124C48.6474 21.3555 48.3223 21.7408 48.132 22.1684C47.9081 22.6714 47.4841 23.1371 46.9335 23.1371H45.6602C45.1096 23.1371 44.6514 22.6842 44.7869 22.1506C44.939 21.5515 45.2316 20.9672 45.6645 20.3977C46.3437 19.508 47.2571 18.8056 48.4047 18.2905C49.564 17.7754 50.8345 17.5179 52.2163 17.5179C54.4061 17.5179 56.1216 18.0681 57.3629 19.1685C58.6042 20.2573 59.2482 21.7616 59.2951 23.6815V32.4265C59.2951 34.1461 59.5113 35.5186 59.9437 36.5442C59.956 36.5735 59.9625 36.6047 59.9625 36.6365C59.9625 36.765 59.8583 36.8693 59.7297 36.8693H57.0231ZM51.1624 34.3933C52.1812 34.3933 53.1473 34.1299 54.0606 33.6031C54.8993 33.1194 55.5257 32.5024 55.9398 31.7523C56.0128 31.62 56.0455 31.47 56.0455 31.319V28.647C56.0455 28.0965 55.5992 27.6501 55.0486 27.6501H53.4986C49.5171 27.6501 47.5264 28.815 47.5264 31.1446C47.5264 32.1631 47.866 32.9592 48.5452 33.5328C49.2244 34.1065 50.0968 34.3933 51.1624 34.3933Z" fill="#424242"/>
<path d="M103.823 37.2205C101.246 37.2205 99.1504 36.3776 97.5344 34.6918C95.9184 32.9943 95.1104 30.729 95.1104 27.896V27.2989C95.1104 25.4141 95.4675 23.7342 96.1818 22.2591C96.9079 20.7724 97.9149 19.6134 99.203 18.7822C100.503 17.9393 101.908 17.5179 103.419 17.5179C105.89 17.5179 107.81 18.3315 109.18 19.9587C110.55 21.586 111.235 23.9157 111.235 26.9477V27.303C111.235 27.8535 110.789 28.2999 110.238 28.2999H99.382C98.8217 28.2999 98.3644 28.7631 98.4391 29.3184C98.6291 30.7304 99.1472 31.9069 99.9935 32.848C101.047 33.9953 102.382 34.5689 103.998 34.5689C105.146 34.5689 106.118 34.3348 106.914 33.8665C107.433 33.5611 107.91 33.1911 108.345 32.7564C108.735 32.366 109.358 32.2806 109.794 32.6196L110.266 32.9877C110.675 33.3059 110.777 33.889 110.452 34.2922C108.878 36.2444 106.668 37.2205 103.823 37.2205ZM103.419 20.187C102.107 20.187 101.006 20.667 100.116 21.627C99.4279 22.3606 98.9426 23.3255 98.6606 24.5217C98.5232 25.1044 98.9931 25.6307 99.5917 25.6307H107.74C107.876 25.6307 107.986 25.5206 107.986 25.3849C107.892 23.7342 107.447 22.4581 106.651 21.5567C105.854 20.6436 104.777 20.187 103.419 20.187Z" fill="#424242"/>
<path d="M129.626 24.5811C129.626 25.1317 129.18 25.578 128.629 25.578H119.89C119.34 25.578 118.894 26.0243 118.894 26.5749V35.8724C118.894 36.423 118.447 36.8693 117.897 36.8693H116.518C115.967 36.8693 115.521 36.423 115.521 35.8724V12.2984C115.521 11.7478 115.967 11.3015 116.518 11.3015H130.368C130.919 11.3015 131.365 11.7478 131.365 12.2984V13.0792C131.365 13.6297 130.919 14.076 130.368 14.076H119.89C119.34 14.076 118.894 14.5224 118.894 15.0729V21.8242C118.894 22.3747 119.34 22.8211 119.89 22.8211H128.629C129.18 22.8211 129.626 23.2674 129.626 23.8179V24.5811Z" fill="#424242"/>
<path d="M143.625 19.6073C143.625 20.2233 143.071 20.6921 142.455 20.669C142.315 20.6638 142.172 20.6611 142.027 20.6611C139.969 20.6611 138.55 21.5072 137.769 23.1992C137.714 23.3195 137.688 23.4512 137.688 23.5836V35.8724C137.688 36.423 137.242 36.8693 136.691 36.8693H135.436C134.885 36.8693 134.439 36.423 134.439 35.8724V18.8659C134.439 18.3154 134.885 17.8691 135.436 17.8691H137.102C137.379 17.8691 137.606 18.0903 137.612 18.3675C137.625 18.8735 138.357 19.1 138.735 18.7634C139.667 17.933 140.817 17.5179 142.185 17.5179C142.51 17.5179 142.794 17.5395 143.039 17.5827C143.41 17.6484 143.625 18.0023 143.625 18.3799V19.6073Z" fill="#424242"/>
<path d="M154.164 37.2205C151.588 37.2205 149.492 36.3776 147.876 34.6918C146.26 32.9943 145.452 30.729 145.452 27.896V27.2989C145.452 25.4141 145.809 23.7342 146.524 22.2591C147.25 20.7724 148.257 19.6134 149.545 18.7822C150.845 17.9393 152.25 17.5179 153.76 17.5179C156.231 17.5179 158.152 18.3315 159.522 19.9587C160.892 21.586 161.577 23.9157 161.577 26.9477V27.303C161.577 27.8535 161.131 28.2999 160.58 28.2999H149.724C149.163 28.2999 148.706 28.7631 148.781 29.3184C148.971 30.7304 149.489 31.9069 150.335 32.848C151.389 33.9953 152.724 34.5689 154.34 34.5689C155.488 34.5689 156.46 34.3348 157.256 33.8665C157.775 33.5611 158.252 33.1911 158.687 32.7564C159.077 32.366 159.7 32.2806 160.135 32.6196L160.608 32.9877C161.017 33.3059 161.119 33.889 160.794 34.2922C159.219 36.2444 157.009 37.2205 154.164 37.2205ZM153.76 20.187C152.449 20.187 151.348 20.667 150.458 21.627C149.77 22.3606 149.284 23.3255 149.002 24.5217C148.865 25.1044 149.335 25.6307 149.933 25.6307H158.081C158.217 25.6307 158.327 25.5206 158.327 25.3849C158.234 23.7342 157.789 22.4581 156.992 21.5567C156.196 20.6436 155.119 20.187 153.76 20.187Z" fill="#424242"/>
<line x1="36.3018" y1="43.0357" x2="160.58" y2="43.0357" stroke="#0091EA" stroke-width="0.996884"/>
</g>
<defs>
<clipPath id="clip0">
<rect width="162" height="43.4634" fill="white"/>
</clipPath>
</defs>
</svg>
